<mxfile host="app.diagrams.net" modified="2021-05-12T01:05:20.672Z" agent="5.0 (Windows NT 10.0; Win64; x64) AppleWebKit/537.36 (KHTML, like Gecko) Chrome/90.0.4430.93 Safari/537.36" etag="C8yau2dAAxBZH0nBGmLC" version="14.6.12" type="github">
  <diagram id="prtHgNgQTEPvFCAcTncT" name="Page-1">
    <mxGraphModel dx="1008" dy="471" grid="1" gridSize="10" guides="1" tooltips="1" connect="1" arrows="1" fold="1" page="1" pageScale="1" pageWidth="291" pageHeight="413" math="0" shadow="0">
      <root>
        <mxCell id="0" />
        <mxCell id="1" parent="0" />
        <mxCell id="bVtSqR3nZb3WcU69157r-57" style="edgeStyle=orthogonalEdgeStyle;rounded=0;orthogonalLoop=1;jettySize=auto;html=1;exitX=0;exitY=1;exitDx=0;exitDy=0;entryX=0.25;entryY=0;entryDx=0;entryDy=0;" edge="1" parent="1" source="bVtSqR3nZb3WcU69157r-2" target="bVtSqR3nZb3WcU69157r-45">
          <mxGeometry relative="1" as="geometry" />
        </mxCell>
        <mxCell id="bVtSqR3nZb3WcU69157r-2" value="&lt;span&gt;A的构造函数&lt;/span&gt;" style="ellipse;whiteSpace=wrap;html=1;aspect=fixed;" vertex="1" parent="1">
          <mxGeometry x="263.38" y="73.75" width="91.25" height="91.25" as="geometry" />
        </mxCell>
        <mxCell id="bVtSqR3nZb3WcU69157r-14" value="A" style="text;html=1;strokeColor=none;fillColor=none;align=center;verticalAlign=middle;whiteSpace=wrap;rounded=0;" vertex="1" parent="1">
          <mxGeometry x="224" y="83.75" width="40" height="20" as="geometry" />
        </mxCell>
        <mxCell id="bVtSqR3nZb3WcU69157r-16" value="constructor" style="text;html=1;strokeColor=none;fillColor=none;align=center;verticalAlign=middle;whiteSpace=wrap;rounded=0;" vertex="1" parent="1">
          <mxGeometry x="354" y="183.75" width="40" height="20" as="geometry" />
        </mxCell>
        <mxCell id="bVtSqR3nZb3WcU69157r-19" value="prototype" style="text;html=1;strokeColor=none;fillColor=none;align=center;verticalAlign=middle;whiteSpace=wrap;rounded=0;" vertex="1" parent="1">
          <mxGeometry x="223.38" y="183.75" width="40" height="20" as="geometry" />
        </mxCell>
        <mxCell id="bVtSqR3nZb3WcU69157r-48" style="edgeStyle=orthogonalEdgeStyle;rounded=0;orthogonalLoop=1;jettySize=auto;html=1;entryX=0;entryY=0.5;entryDx=0;entryDy=0;" edge="1" parent="1" source="bVtSqR3nZb3WcU69157r-44" target="bVtSqR3nZb3WcU69157r-45">
          <mxGeometry relative="1" as="geometry" />
        </mxCell>
        <mxCell id="bVtSqR3nZb3WcU69157r-44" value="new A()" style="rounded=0;whiteSpace=wrap;html=1;" vertex="1" parent="1">
          <mxGeometry x="34" y="223.75" width="130" height="90" as="geometry" />
        </mxCell>
        <mxCell id="bVtSqR3nZb3WcU69157r-49" style="edgeStyle=orthogonalEdgeStyle;rounded=0;orthogonalLoop=1;jettySize=auto;html=1;entryX=0;entryY=0.5;entryDx=0;entryDy=0;" edge="1" parent="1" source="bVtSqR3nZb3WcU69157r-45" target="bVtSqR3nZb3WcU69157r-46">
          <mxGeometry relative="1" as="geometry" />
        </mxCell>
        <mxCell id="bVtSqR3nZb3WcU69157r-56" style="edgeStyle=orthogonalEdgeStyle;rounded=0;orthogonalLoop=1;jettySize=auto;html=1;exitX=0.75;exitY=0;exitDx=0;exitDy=0;entryX=1;entryY=1;entryDx=0;entryDy=0;" edge="1" parent="1" source="bVtSqR3nZb3WcU69157r-45" target="bVtSqR3nZb3WcU69157r-2">
          <mxGeometry relative="1" as="geometry" />
        </mxCell>
        <mxCell id="bVtSqR3nZb3WcU69157r-45" value="A的原型" style="rounded=0;whiteSpace=wrap;html=1;" vertex="1" parent="1">
          <mxGeometry x="244" y="223.75" width="130" height="90" as="geometry" />
        </mxCell>
        <mxCell id="bVtSqR3nZb3WcU69157r-50" style="edgeStyle=orthogonalEdgeStyle;rounded=0;orthogonalLoop=1;jettySize=auto;html=1;" edge="1" parent="1" source="bVtSqR3nZb3WcU69157r-46" target="bVtSqR3nZb3WcU69157r-47">
          <mxGeometry relative="1" as="geometry" />
        </mxCell>
        <mxCell id="bVtSqR3nZb3WcU69157r-62" style="edgeStyle=orthogonalEdgeStyle;rounded=0;orthogonalLoop=1;jettySize=auto;html=1;exitX=0.75;exitY=0;exitDx=0;exitDy=0;entryX=1;entryY=1;entryDx=0;entryDy=0;" edge="1" parent="1" source="bVtSqR3nZb3WcU69157r-46" target="bVtSqR3nZb3WcU69157r-60">
          <mxGeometry relative="1" as="geometry" />
        </mxCell>
        <mxCell id="bVtSqR3nZb3WcU69157r-46" value="Object的原型" style="rounded=0;whiteSpace=wrap;html=1;" vertex="1" parent="1">
          <mxGeometry x="454" y="223.75" width="130" height="90" as="geometry" />
        </mxCell>
        <mxCell id="bVtSqR3nZb3WcU69157r-47" value="null" style="rounded=0;whiteSpace=wrap;html=1;" vertex="1" parent="1">
          <mxGeometry x="664" y="223.75" width="130" height="90" as="geometry" />
        </mxCell>
        <mxCell id="bVtSqR3nZb3WcU69157r-51" value="__proto__" style="text;html=1;strokeColor=none;fillColor=none;align=center;verticalAlign=middle;whiteSpace=wrap;rounded=0;" vertex="1" parent="1">
          <mxGeometry x="184" y="243.75" width="40" height="20" as="geometry" />
        </mxCell>
        <mxCell id="bVtSqR3nZb3WcU69157r-52" value="__proto__" style="text;html=1;strokeColor=none;fillColor=none;align=center;verticalAlign=middle;whiteSpace=wrap;rounded=0;" vertex="1" parent="1">
          <mxGeometry x="394" y="243.75" width="40" height="20" as="geometry" />
        </mxCell>
        <mxCell id="bVtSqR3nZb3WcU69157r-53" value="__proto__" style="text;html=1;strokeColor=none;fillColor=none;align=center;verticalAlign=middle;whiteSpace=wrap;rounded=0;" vertex="1" parent="1">
          <mxGeometry x="604" y="243.75" width="40" height="20" as="geometry" />
        </mxCell>
        <mxCell id="bVtSqR3nZb3WcU69157r-63" style="edgeStyle=orthogonalEdgeStyle;rounded=0;orthogonalLoop=1;jettySize=auto;html=1;exitX=0;exitY=1;exitDx=0;exitDy=0;entryX=0.25;entryY=0;entryDx=0;entryDy=0;" edge="1" parent="1" source="bVtSqR3nZb3WcU69157r-60" target="bVtSqR3nZb3WcU69157r-46">
          <mxGeometry relative="1" as="geometry" />
        </mxCell>
        <mxCell id="bVtSqR3nZb3WcU69157r-60" value="Object的构造函数" style="ellipse;whiteSpace=wrap;html=1;aspect=fixed;" vertex="1" parent="1">
          <mxGeometry x="473.38" y="73.75" width="91.25" height="91.25" as="geometry" />
        </mxCell>
        <mxCell id="bVtSqR3nZb3WcU69157r-61" value="Object" style="text;html=1;strokeColor=none;fillColor=none;align=center;verticalAlign=middle;whiteSpace=wrap;rounded=0;" vertex="1" parent="1">
          <mxGeometry x="434" y="83.75" width="40" height="20" as="geometry" />
        </mxCell>
        <mxCell id="bVtSqR3nZb3WcU69157r-64" value="constructor" style="text;html=1;strokeColor=none;fillColor=none;align=center;verticalAlign=middle;whiteSpace=wrap;rounded=0;" vertex="1" parent="1">
          <mxGeometry x="564" y="183.75" width="40" height="20" as="geometry" />
        </mxCell>
        <mxCell id="bVtSqR3nZb3WcU69157r-65" value="prototype" style="text;html=1;strokeColor=none;fillColor=none;align=center;verticalAlign=middle;whiteSpace=wrap;rounded=0;" vertex="1" parent="1">
          <mxGeometry x="433.38" y="183.75" width="40" height="20" as="geometry" />
        </mxCell>
        <mxCell id="bVtSqR3nZb3WcU69157r-66" value="" style="rounded=0;whiteSpace=wrap;html=1;" vertex="1" parent="1">
          <mxGeometry x="34" y="70" width="46" height="40" as="geometry" />
        </mxCell>
        <mxCell id="bVtSqR3nZb3WcU69157r-67" value="" style="ellipse;whiteSpace=wrap;html=1;aspect=fixed;" vertex="1" parent="1">
          <mxGeometry x="34" y="120" width="45" height="45" as="geometry" />
        </mxCell>
        <mxCell id="bVtSqR3nZb3WcU69157r-68" value="对象" style="text;html=1;strokeColor=none;fillColor=none;align=center;verticalAlign=middle;whiteSpace=wrap;rounded=0;" vertex="1" parent="1">
          <mxGeometry x="90" y="80" width="30" height="20" as="geometry" />
        </mxCell>
        <mxCell id="bVtSqR3nZb3WcU69157r-69" value="构造函数" style="text;html=1;strokeColor=none;fillColor=none;align=center;verticalAlign=middle;whiteSpace=wrap;rounded=0;" vertex="1" parent="1">
          <mxGeometry x="90" y="132.5" width="30" height="20" as="geometry" />
        </mxCell>
      </root>
    </mxGraphModel>
  </diagram>
</mxfile>
